<svg width="140" height="52" viewBox="0 0 140 52" fill="none" xmlns="http://www.w3.org/2000/svg">
<path d="M72.296 34.168C71.176 34.168 70.168 33.976 69.272 33.592C68.376 33.192 67.672 32.632 67.16 31.912C66.648 31.192 66.392 30.352 66.392 29.392H69.32C69.384 30.112 69.664 30.704 70.16 31.168C70.672 31.632 71.384 31.864 72.296 31.864C73.24 31.864 73.976 31.64 74.504 31.192C75.032 30.728 75.296 30.136 75.296 29.416C75.296 28.856 75.128 28.4 74.792 28.048C74.472 27.696 74.064 27.424 73.568 27.232C73.088 27.04 72.416 26.832 71.552 26.608C70.464 26.32 69.576 26.032 68.888 25.744C68.216 25.44 67.64 24.976 67.16 24.352C66.68 23.728 66.44 22.896 66.44 21.856C66.44 20.896 66.68 20.056 67.16 19.336C67.64 18.616 68.312 18.064 69.176 17.68C70.04 17.296 71.04 17.104 72.176 17.104C73.792 17.104 75.112 17.512 76.136 18.328C77.176 19.128 77.752 20.232 77.864 21.64H74.84C74.792 21.032 74.504 20.512 73.976 20.08C73.448 19.648 72.752 19.432 71.888 19.432C71.104 19.432 70.464 19.632 69.968 20.032C69.472 20.432 69.224 21.008 69.224 21.76C69.224 22.272 69.376 22.696 69.68 23.032C70 23.352 70.4 23.608 70.88 23.8C71.36 23.992 72.016 24.2 72.848 24.424C73.952 24.728 74.848 25.032 75.536 25.336C76.24 25.64 76.832 26.112 77.312 26.752C77.808 27.376 78.056 28.216 78.056 29.272C78.056 30.12 77.824 30.92 77.36 31.672C76.912 32.424 76.248 33.032 75.368 33.496C74.504 33.944 73.48 34.168 72.296 34.168ZM80.3724 27.328C80.3724 26 80.6444 24.824 81.1884 23.8C81.7484 22.776 82.5004 21.984 83.4444 21.424C84.4044 20.848 85.4604 20.56 86.6124 20.56C87.6524 20.56 88.5564 20.768 89.3244 21.184C90.1084 21.584 90.7324 22.088 91.1964 22.696V20.776H93.9564V34H91.1964V32.032C90.7324 32.656 90.1004 33.176 89.3004 33.592C88.5004 34.008 87.5884 34.216 86.5644 34.216C85.4284 34.216 84.3884 33.928 83.4444 33.352C82.5004 32.76 81.7484 31.944 81.1884 30.904C80.6444 29.848 80.3724 28.656 80.3724 27.328ZM91.1964 27.376C91.1964 26.464 91.0044 25.672 90.6204 25C90.2524 24.328 89.7644 23.816 89.1564 23.464C88.5484 23.112 87.8924 22.936 87.1884 22.936C86.4844 22.936 85.8284 23.112 85.2204 23.464C84.6124 23.8 84.1164 24.304 83.7324 24.976C83.3644 25.632 83.1804 26.416 83.1804 27.328C83.1804 28.24 83.3644 29.04 83.7324 29.728C84.1164 30.416 84.6124 30.944 85.2204 31.312C85.8444 31.664 86.5004 31.84 87.1884 31.84C87.8924 31.84 88.5484 31.664 89.1564 31.312C89.7644 30.96 90.2524 30.448 90.6204 29.776C91.0044 29.088 91.1964 28.288 91.1964 27.376ZM102.662 31.552L106.406 20.776H109.31L104.27 34H101.006L95.99 20.776H98.918L102.662 31.552ZM123.498 27.064C123.498 27.56 123.466 28.008 123.402 28.408H113.298C113.378 29.464 113.77 30.312 114.474 30.952C115.178 31.592 116.042 31.912 117.066 31.912C118.538 31.912 119.578 31.296 120.186 30.064H123.138C122.738 31.28 122.01 32.28 120.954 33.064C119.914 33.832 118.618 34.216 117.066 34.216C115.802 34.216 114.666 33.936 113.658 33.376C112.666 32.8 111.882 32 111.306 30.976C110.746 29.936 110.466 28.736 110.466 27.376C110.466 26.016 110.738 24.824 111.282 23.8C111.842 22.76 112.618 21.96 113.61 21.4C114.618 20.84 115.77 20.56 117.066 20.56C118.314 20.56 119.426 20.832 120.402 21.376C121.378 21.92 122.138 22.688 122.682 23.68C123.226 24.656 123.498 25.784 123.498 27.064ZM120.642 26.2C120.626 25.192 120.266 24.384 119.562 23.776C118.858 23.168 117.986 22.864 116.946 22.864C116.002 22.864 115.194 23.168 114.522 23.776C113.85 24.368 113.45 25.176 113.322 26.2H120.642ZM128.927 17.32V34H126.191V17.32H128.927ZM135.711 23.008V30.328C135.711 30.824 135.823 31.184 136.047 31.408C136.287 31.616 136.687 31.72 137.247 31.72H138.927V34H136.767C135.535 34 134.591 33.712 133.935 33.136C133.279 32.56 132.951 31.624 132.951 30.328V23.008H131.391V20.776H132.951V17.488H135.711V20.776H138.927V23.008H135.711Z" fill="#FA7275"/>
<rect opacity="0.2" width="48" height="48" rx="24" fill="#FA7275"/>
<rect x="21" y="20" width="32" height="32" rx="16" fill="#FA7275"/>
</svg>
